<svg width="43" height="42" viewBox="0 0 43 42" fill="none" xmlns="http://www.w3.org/2000/svg">
<path d="M35.1 16.3623C35.1 15.81 34.6523 15.3623 34.1 15.3623C33.5477 15.3623 33.1 15.81 33.1 16.3623H35.1ZM6.55754 28.3725C6.23179 27.9265 5.60617 27.829 5.16018 28.1548C4.71419 28.4805 4.61672 29.1061 4.94246 29.5521L6.55754 28.3725ZM5.58009 27.9768C5.03584 28.0707 4.6707 28.588 4.76454 29.1322C4.85838 29.6765 5.37565 30.0416 5.91991 29.9478L5.58009 27.9768ZM10.475 27.3873L10.7927 28.3355C11.1202 28.2258 11.3678 27.9549 11.4478 27.6189C11.5278 27.283 11.4288 26.9296 11.186 26.6841L10.475 27.3873ZM8.9 8.4873L9.78077 8.01377C9.61729 7.70969 9.30851 7.51144 8.96398 7.48935C8.61944 7.46726 8.28788 7.62446 8.08691 7.90517L8.9 8.4873ZM18.35 16.3623L18.1138 17.334C18.4063 17.4051 18.7152 17.3407 18.9549 17.1586C19.1946 16.9765 19.3395 16.6962 19.3495 16.3954L18.35 16.3623ZM32.525 11.6373L31.6901 12.1877C31.8751 12.4684 32.1888 12.6373 32.525 12.6373V11.6373ZM37.25 11.6373L38.0821 12.192C38.2866 11.8851 38.3057 11.4906 38.1317 11.1654C37.9577 10.8403 37.6188 10.6373 37.25 10.6373V11.6373ZM33.268 15.8076C32.9616 16.2671 33.0858 16.888 33.5453 17.1944C34.0048 17.5007 34.6257 17.3765 34.9321 16.917L33.268 15.8076ZM33.1 16.3623C33.1 21.6908 31.5785 26.1611 28.822 29.2851C26.0793 32.3935 22.0332 34.2623 16.775 34.2623V36.2623C22.5418 36.2623 27.1582 34.1936 30.3217 30.6083C33.4715 27.0385 35.1 22.0588 35.1 16.3623H33.1ZM16.775 34.2623C13.8178 34.2623 11.8162 33.4965 10.3025 32.4254C8.75829 31.3327 7.66217 29.8849 6.55754 28.3725L4.94246 29.5521C6.03758 31.0515 7.30396 32.7537 9.14728 34.058C11.0211 35.384 13.4322 36.2623 16.775 36.2623V34.2623ZM5.91991 29.9478C5.95163 29.9423 5.97622 29.9364 5.98476 29.9344C5.99638 29.9316 6.00581 29.9291 6.01153 29.9276C6.02295 29.9245 6.03236 29.9218 6.03746 29.9203C6.04824 29.9171 6.05839 29.914 6.06555 29.9117C6.08077 29.907 6.09914 29.9011 6.11865 29.8948C6.15843 29.882 6.21341 29.864 6.28023 29.842C6.41437 29.7978 6.60228 29.7356 6.82518 29.6614C7.27129 29.5131 7.86093 29.3163 8.4485 29.12C9.03618 28.9236 9.62223 28.7274 10.0613 28.5804C10.2809 28.5069 10.4637 28.4457 10.5917 28.4028C10.6556 28.3814 10.7059 28.3646 10.7402 28.3531C10.7573 28.3474 10.7704 28.343 10.7793 28.34C10.7837 28.3385 10.7871 28.3374 10.7893 28.3366C10.7904 28.3363 10.7913 28.336 10.7919 28.3358C10.7921 28.3357 10.7924 28.3356 10.7925 28.3356C10.7926 28.3355 10.7926 28.3355 10.7927 28.3355C10.7927 28.3355 10.7927 28.3355 10.475 27.3873C10.1573 26.4391 10.1573 26.4391 10.1572 26.4391C10.1572 26.4391 10.1571 26.4392 10.1571 26.4392C10.1569 26.4392 10.1567 26.4393 10.1564 26.4394C10.1559 26.4396 10.155 26.4399 10.1539 26.4403C10.1517 26.441 10.1483 26.4421 10.1439 26.4436C10.1351 26.4466 10.1219 26.451 10.1048 26.4567C10.0706 26.4682 10.0204 26.485 9.95644 26.5064C9.82857 26.5492 9.64584 26.6104 9.42639 26.6839C8.98748 26.8308 8.40179 27.0268 7.81456 27.2231C7.22722 27.4194 6.63878 27.6158 6.1942 27.7636C5.97176 27.8375 5.78616 27.8991 5.65497 27.9422C5.58912 27.9639 5.53847 27.9805 5.50421 27.9915C5.4867 27.9972 5.47593 28.0006 5.47049 28.0023C5.46732 28.0033 5.46925 28.0027 5.474 28.0013C5.47608 28.0007 5.48302 27.9986 5.49254 27.9961C5.4973 27.9948 5.50591 27.9925 5.51685 27.9899C5.52472 27.988 5.54876 27.9822 5.58009 27.9768L5.91991 29.9478ZM11.186 26.6841C6.27504 21.7192 5.90639 14.3864 9.71309 9.06944L8.08691 7.90517C3.72461 13.9982 4.15396 22.4189 9.76404 28.0905L11.186 26.6841ZM8.01923 8.96084C10.0539 12.7453 13.8748 16.3038 18.1138 17.334L18.5862 15.3906C15.0342 14.5273 11.6206 11.4358 9.78077 8.01377L8.01923 8.96084ZM19.3495 16.3954C19.4175 14.339 20.1445 12.6181 21.3189 11.418C22.488 10.2233 24.1555 9.4873 26.225 9.4873V7.4873C23.6553 7.4873 21.4605 8.41383 19.8895 10.0191C18.3239 11.619 17.433 13.8356 17.3505 16.3292L19.3495 16.3954ZM26.225 9.4873C27.6752 9.4873 28.7608 9.76285 29.6077 10.2148C30.4524 10.6656 31.1213 11.3248 31.6901 12.1877L33.3599 11.0869C32.646 10.0038 31.7443 9.08804 30.5493 8.45033C29.3565 7.81376 27.9335 7.4873 26.225 7.4873V9.4873ZM32.525 12.6373H37.25V10.6373H32.525V12.6373ZM36.4179 11.0826L33.268 15.8076L34.9321 16.917L38.0821 12.192L36.4179 11.0826Z" fill="black"/>
</svg>
