<svg width="43" height="42" viewBox="0 0 43 42" fill="none" xmlns="http://www.w3.org/2000/svg">
<path fill-rule="evenodd" clip-rule="evenodd" d="M13.625 5.25H29.382C33.7272 5.25 37.25 8.77275 37.25 13.118V28.8838C37.25 33.2273 33.7272 36.75 29.382 36.75H13.618C9.27275 36.75 5.75 33.2272 5.75 28.882V13.125C5.75 8.77625 9.27625 5.25 13.625 5.25V5.25Z" stroke="black" stroke-width="2" stroke-linecap="round" stroke-linejoin="round" fill="none"/>
<path d="M19.1971 16.877H21.3234V27.51H21.3199C19.1306 27.51 16.7244 26.18 15.0181 23.73C12.4561 20.139 11.7561 17.4247 11.7561 16.8787" stroke="black" stroke-width="2" stroke-linecap="round" stroke-linejoin="round" fill="none"/>
<path d="M29.6515 27.5102C29.6515 27.5102 28.878 25.8792 27.3083 24.0854C26.2618 22.8587 24.7883 22.1954 23.4478 22.1954C24.7883 22.1954 26.2618 21.5304 27.3083 20.3054C28.878 18.5099 29.6515 16.8789 29.6515 16.8789" stroke="black" stroke-width="2" stroke-linecap="round" stroke-linejoin="round" fill="none"/>
<path d="M23.4478 22.1968H21.3198" stroke="black" stroke-width="2" stroke-linecap="round" stroke-linejoin="round" fill="none"/>
</svg>
